<svg xmlns="http://www.w3.org/2000/svg" xmlns:xlink="http://www.w3.org/1999/xlink" contentStyleType="text/css" data-diagram-type="CLASS" height="1107px" preserveAspectRatio="none" style="width:2549px;height:1107px;background:#FFFFFF;" version="1.1" viewBox="0 0 2549 1107" width="2549px" zoomAndPan="magnify"><?plantuml 1.2026.4beta2?><defs/><g><!--cluster model--><g class="cluster" data-qualified-name="model" data-source-line="9" id="ent0002"><rect fill="none" height="438.86" rx="2.5" ry="2.5" style="stroke:#000000;stroke-width:1.5;" width="332" x="980" y="655.05"/><text fill="#000000" font-family="sans-serif" font-size="14" font-weight="700" lengthAdjust="spacing" textLength="48.5215" x="1121.7393" y="670.0451">model</text></g><!--cluster factory--><g class="cluster" data-qualified-name="factory" data-source-line="30" id="ent0005"><rect fill="none" height="134.3" rx="2.5" ry="2.5" style="stroke:#000000;stroke-width:1.5;" width="396" x="1900" y="438.86"/><text fill="#000000" font-family="sans-serif" font-size="14" font-weight="700" lengthAdjust="spacing" textLength="56.1777" x="2069.9111" y="453.8551">factory</text></g><!--cluster validation--><g class="cluster" data-qualified-name="validation" data-source-line="36" id="ent0007"><rect fill="none" height="391.23" rx="2.5" ry="2.5" style="stroke:#000000;stroke-width:1.5;" width="384" x="525" y="438.86"/><text fill="#000000" font-family="sans-serif" font-size="14" font-weight="700" lengthAdjust="spacing" textLength="78.7158" x="677.6421" y="453.8551">validation</text></g><!--cluster service--><g class="cluster" data-qualified-name="service" data-source-line="46" id="ent0010"><rect fill="none" height="150.6" rx="2.5" ry="2.5" style="stroke:#000000;stroke-width:1.5;" width="943" x="933" y="430.71"/><text fill="#000000" font-family="sans-serif" font-size="14" font-weight="700" lengthAdjust="spacing" textLength="56.4512" x="1376.2744" y="445.7051">service</text></g><!--cluster ui--><g class="cluster" data-qualified-name="ui" data-source-line="57" id="ent0013"><rect fill="none" height="503.75" rx="2.5" ry="2.5" style="stroke:#000000;stroke-width:1.5;" width="494" x="7" y="118.3"/><text fill="#000000" font-family="sans-serif" font-size="14" font-weight="700" lengthAdjust="spacing" textLength="14.7656" x="246.6172" y="133.2951">ui</text></g><!--class FormDefinition--><g class="entity" data-qualified-name="model.FormDefinition" data-source-line="10" id="ent0003"><rect fill="#F9F9F6" height="145.7813" rx="2.5" ry="2.5" style="stroke:#4A4A4A;stroke-width:0.5;" width="299.417" x="996.29" y="709.05"/><ellipse cx="1089.8466" cy="725.05" fill="#ADD1B2" rx="11" ry="11" style="stroke:#181818;stroke-width:1;"/><path d="M1092.8154,730.6906 Q1092.2373,730.9875 1091.5966,731.1281 Q1090.956,731.2844 1090.2529,731.2844 Q1087.7529,731.2844 1086.4248,729.6438 Q1085.1123,727.9875 1085.1123,724.8625 Q1085.1123,721.7375 1086.4248,720.0813 Q1087.7529,718.425 1090.2529,718.425 Q1090.956,718.425 1091.5966,718.5813 Q1092.2529,718.7375 1092.8154,719.0344 L1092.8154,721.7531 Q1092.1904,721.175 1091.5966,720.9094 Q1091.0029,720.6281 1090.3779,720.6281 Q1089.0341,720.6281 1088.3466,721.7063 Q1087.6591,722.7688 1087.6591,724.8625 Q1087.6591,726.9563 1088.3466,728.0344 Q1089.0341,729.0969 1090.3779,729.0969 Q1091.0029,729.0969 1091.5966,728.8313 Q1092.1904,728.55 1092.8154,727.9719 L1092.8154,730.6906 Z " fill="#000000"/><text fill="#000000" font-family="sans-serif" font-size="14" lengthAdjust="spacing" textLength="103.8037" x="1110.3466" y="729.8967">FormDefinition</text><line style="stroke:#4A4A4A;stroke-width:0.5;" x1="997.29" x2="1294.707" y1="741.05" y2="741.05"/><text fill="#000000" font-family="sans-serif" font-size="14" lengthAdjust="spacing" textLength="119.3213" x="1002.29" y="758.0451">-formTitle: String</text><text fill="#000000" font-family="sans-serif" font-size="14" lengthAdjust="spacing" textLength="168.998" x="1002.29" y="774.342">-fields: List&lt;FormField&gt;</text><line style="stroke:#4A4A4A;stroke-width:0.5;" x1="997.29" x2="1294.707" y1="781.6438" y2="781.6438"/><text fill="#000000" font-family="sans-serif" font-size="14" lengthAdjust="spacing" textLength="163.0371" x="1002.29" y="798.6389">+getFormTitle(): String</text><text fill="#000000" font-family="sans-serif" font-size="14" lengthAdjust="spacing" textLength="263.5596" x="1002.29" y="814.9357">+setFormTitle(formTitle: String): void</text><text fill="#000000" font-family="sans-serif" font-size="14" lengthAdjust="spacing" textLength="212.7139" x="1002.29" y="831.2326">+getFields(): List&lt;FormField&gt;</text><text fill="#000000" font-family="sans-serif" font-size="14" lengthAdjust="spacing" textLength="287.417" x="1002.29" y="847.5295">+setFields(fields: List&lt;FormField&gt;): void</text></g><!--class FormField--><g class="entity" data-qualified-name="model.FormField" data-source-line="19" id="ent0004"><rect fill="#F9F9F6" height="162.0781" rx="2.5" ry="2.5" style="stroke:#4A4A4A;stroke-width:0.5;" width="167.4971" x="1095.25" y="915.83"/><ellipse cx="1140.0767" cy="931.83" fill="#ADD1B2" rx="11" ry="11" style="stroke:#181818;stroke-width:1;"/><path d="M1143.0454,937.4706 Q1142.4673,937.7675 1141.8267,937.9081 Q1141.186,938.0644 1140.4829,938.0644 Q1137.9829,938.0644 1136.6548,936.4238 Q1135.3423,934.7675 1135.3423,931.6425 Q1135.3423,928.5175 1136.6548,926.8613 Q1137.9829,925.205 1140.4829,925.205 Q1141.186,925.205 1141.8267,925.3613 Q1142.4829,925.5175 1143.0454,925.8144 L1143.0454,928.5331 Q1142.4204,927.955 1141.8267,927.6894 Q1141.2329,927.4081 1140.6079,927.4081 Q1139.2642,927.4081 1138.5767,928.4863 Q1137.8892,929.5488 1137.8892,931.6425 Q1137.8892,933.7363 1138.5767,934.8144 Q1139.2642,935.8769 1140.6079,935.8769 Q1141.2329,935.8769 1141.8267,935.6113 Q1142.4204,935.33 1143.0454,934.7519 L1143.0454,937.4706 Z " fill="#000000"/><text fill="#000000" font-family="sans-serif" font-size="14" lengthAdjust="spacing" textLength="69.3438" x="1160.5767" y="936.6767">FormField</text><line style="stroke:#4A4A4A;stroke-width:0.5;" x1="1096.25" x2="1261.7471" y1="947.83" y2="947.83"/><text fill="#000000" font-family="sans-serif" font-size="14" lengthAdjust="spacing" textLength="68.7764" x="1101.25" y="964.8251">-id: String</text><text fill="#000000" font-family="sans-serif" font-size="14" lengthAdjust="spacing" textLength="89.8584" x="1101.25" y="981.122">-label: String</text><text fill="#000000" font-family="sans-serif" font-size="14" lengthAdjust="spacing" textLength="139.1729" x="1101.25" y="997.4189">-controlType: String</text><text fill="#000000" font-family="sans-serif" font-size="14" lengthAdjust="spacing" textLength="121.8711" x="1101.25" y="1013.7157">-dataType: String</text><text fill="#000000" font-family="sans-serif" font-size="14" lengthAdjust="spacing" textLength="129.4658" x="1101.25" y="1030.0126">-required: boolean</text><text fill="#000000" font-family="sans-serif" font-size="14" lengthAdjust="spacing" textLength="155.4971" x="1101.25" y="1046.3095">-options: List&lt;String&gt;</text><line style="stroke:#4A4A4A;stroke-width:0.5;" x1="1096.25" x2="1261.7471" y1="1053.6113" y2="1053.6113"/><text fill="#000000" font-family="sans-serif" font-size="14" lengthAdjust="spacing" textLength="126.0615" x="1101.25" y="1070.6064">+getters/setters()</text></g><!--class FieldComponentFactory--><g class="entity" data-qualified-name="factory.FieldComponentFactory" data-source-line="31" id="ent0006"><rect fill="#F9F9F6" height="64.2969" rx="2.5" ry="2.5" style="stroke:#4A4A4A;stroke-width:0.5;" width="364.8027" x="1915.6" y="492.86"/><ellipse cx="2010.2333" cy="508.86" fill="#ADD1B2" rx="11" ry="11" style="stroke:#181818;stroke-width:1;"/><path d="M2013.2021,514.5006 Q2012.6239,514.7975 2011.9833,514.9381 Q2011.3427,515.0944 2010.6396,515.0944 Q2008.1396,515.0944 2006.8114,513.4538 Q2005.4989,511.7975 2005.4989,508.6725 Q2005.4989,505.5475 2006.8114,503.8913 Q2008.1396,502.235 2010.6396,502.235 Q2011.3427,502.235 2011.9833,502.3913 Q2012.6396,502.5475 2013.2021,502.8444 L2013.2021,505.5631 Q2012.5771,504.985 2011.9833,504.7194 Q2011.3896,504.4381 2010.7646,504.4381 Q2009.4208,504.4381 2008.7333,505.5163 Q2008.0458,506.5788 2008.0458,508.6725 Q2008.0458,510.7663 2008.7333,511.8444 Q2009.4208,512.9069 2010.7646,512.9069 Q2011.3896,512.9069 2011.9833,512.6413 Q2012.5771,512.36 2013.2021,511.7819 L2013.2021,514.5006 Z " fill="#000000"/><text fill="#000000" font-family="sans-serif" font-size="14" lengthAdjust="spacing" textLength="167.0361" x="2030.7333" y="513.7067">FieldComponentFactory</text><line style="stroke:#4A4A4A;stroke-width:0.5;" x1="1916.6" x2="2279.4027" y1="524.86" y2="524.86"/><line style="stroke:#4A4A4A;stroke-width:0.5;" x1="1916.6" x2="2279.4027" y1="532.86" y2="532.86"/><text fill="#000000" font-family="sans-serif" font-size="14" lengthAdjust="spacing" textLength="352.8027" x="1921.6" y="549.8551">+create(field: FormField): FieldComponentBinding</text></g><!--class FieldValidator--><g class="entity" data-qualified-name="validation.FieldValidator" data-source-line="37" id="ent0008"><rect fill="#F9F9F6" height="64.2969" rx="2.5" ry="2.5" style="stroke:#4A4A4A;stroke-width:0.5;" width="352.4365" x="540.78" y="492.86"/><ellipse cx="664.4763" cy="508.86" fill="#B4A7E5" rx="11" ry="11" style="stroke:#181818;stroke-width:1;"/><path d="M660.3982,504.6256 L660.3982,502.4694 L667.7888,502.4694 L667.7888,504.6256 L665.32,504.6256 L665.32,512.7038 L667.7888,512.7038 L667.7888,514.86 L660.3982,514.86 L660.3982,512.7038 L662.8669,512.7038 L662.8669,504.6256 L660.3982,504.6256 Z " fill="#000000"/><text fill="#000000" font-family="sans-serif" font-size="14" font-style="italic" lengthAdjust="spacing" textLength="96.5439" x="684.9763" y="513.7067">FieldValidator</text><line style="stroke:#4A4A4A;stroke-width:0.5;" x1="541.78" x2="892.2165" y1="524.86" y2="524.86"/><line style="stroke:#4A4A4A;stroke-width:0.5;" x1="541.78" x2="892.2165" y1="532.86" y2="532.86"/><text fill="#000000" font-family="sans-serif" font-size="14" lengthAdjust="spacing" textLength="340.4365" x="546.78" y="549.8551">+validate(field: FormField, value: Object): String</text></g><!--class DefaultFieldValidator--><g class="entity" data-qualified-name="validation.DefaultFieldValidator" data-source-line="41" id="ent0009"><rect fill="#F9F9F6" height="64.2969" rx="2.5" ry="2.5" style="stroke:#4A4A4A;stroke-width:0.5;" width="352.4365" x="540.78" y="749.79"/><ellipse cx="638.8996" cy="765.79" fill="#ADD1B2" rx="11" ry="11" style="stroke:#181818;stroke-width:1;"/><path d="M641.8684,771.4306 Q641.2903,771.7275 640.6496,771.8681 Q640.009,772.0244 639.3059,772.0244 Q636.8059,772.0244 635.4778,770.3838 Q634.1653,768.7275 634.1653,765.6025 Q634.1653,762.4775 635.4778,760.8213 Q636.8059,759.165 639.3059,759.165 Q640.009,759.165 640.6496,759.3213 Q641.3059,759.4775 641.8684,759.7744 L641.8684,762.4931 Q641.2434,761.915 640.6496,761.6494 Q640.0559,761.3681 639.4309,761.3681 Q638.0871,761.3681 637.3996,762.4463 Q636.7121,763.5088 636.7121,765.6025 Q636.7121,767.6963 637.3996,768.7744 Q638.0871,769.8369 639.4309,769.8369 Q640.0559,769.8369 640.6496,769.5713 Q641.2434,769.29 641.8684,768.7119 L641.8684,771.4306 Z " fill="#000000"/><text fill="#000000" font-family="sans-serif" font-size="14" lengthAdjust="spacing" textLength="147.6973" x="659.3996" y="770.6367">DefaultFieldValidator</text><line style="stroke:#4A4A4A;stroke-width:0.5;" x1="541.78" x2="892.2165" y1="781.79" y2="781.79"/><line style="stroke:#4A4A4A;stroke-width:0.5;" x1="541.78" x2="892.2165" y1="789.79" y2="789.79"/><text fill="#000000" font-family="sans-serif" font-size="14" lengthAdjust="spacing" textLength="340.4365" x="546.78" y="806.7851">+validate(field: FormField, value: Object): String</text></g><!--class FormJsonService--><g class="entity" data-qualified-name="service.FormJsonService" data-source-line="47" id="ent0011"><rect fill="#F9F9F6" height="64.2969" rx="2.5" ry="2.5" style="stroke:#4A4A4A;stroke-width:0.5;" width="317.7168" x="949.14" y="492.86"/><ellipse cx="1045.4413" cy="508.86" fill="#ADD1B2" rx="11" ry="11" style="stroke:#181818;stroke-width:1;"/><path d="M1048.41,514.5006 Q1047.8319,514.7975 1047.1913,514.9381 Q1046.5506,515.0944 1045.8475,515.0944 Q1043.3475,515.0944 1042.0194,513.4538 Q1040.7069,511.7975 1040.7069,508.6725 Q1040.7069,505.5475 1042.0194,503.8913 Q1043.3475,502.235 1045.8475,502.235 Q1046.5506,502.235 1047.1913,502.3913 Q1047.8475,502.5475 1048.41,502.8444 L1048.41,505.5631 Q1047.785,504.985 1047.1913,504.7194 Q1046.5975,504.4381 1045.9725,504.4381 Q1044.6288,504.4381 1043.9413,505.5163 Q1043.2538,506.5788 1043.2538,508.6725 Q1043.2538,510.7663 1043.9413,511.8444 Q1044.6288,512.9069 1045.9725,512.9069 Q1046.5975,512.9069 1047.1913,512.6413 Q1047.785,512.36 1048.41,511.7819 L1048.41,514.5006 Z " fill="#000000"/><text fill="#000000" font-family="sans-serif" font-size="14" lengthAdjust="spacing" textLength="116.6143" x="1065.9413" y="513.7067">FormJsonService</text><line style="stroke:#4A4A4A;stroke-width:0.5;" x1="950.14" x2="1265.8568" y1="524.86" y2="524.86"/><line style="stroke:#4A4A4A;stroke-width:0.5;" x1="950.14" x2="1265.8568" y1="532.86" y2="532.86"/><text fill="#000000" font-family="sans-serif" font-size="14" lengthAdjust="spacing" textLength="305.7168" x="955.14" y="549.8551">+loadDefinition(path: Path): FormDefinition</text></g><!--class ResultJsonService--><g class="entity" data-qualified-name="service.ResultJsonService" data-source-line="51" id="ent0012"><rect fill="#F9F9F6" height="80.5938" rx="2.5" ry="2.5" style="stroke:#4A4A4A;stroke-width:0.5;" width="558.54" x="1301.73" y="484.71"/><ellipse cx="1514.5054" cy="500.71" fill="#ADD1B2" rx="11" ry="11" style="stroke:#181818;stroke-width:1;"/><path d="M1517.4741,506.3506 Q1516.896,506.6475 1516.2554,506.7881 Q1515.6148,506.9444 1514.9116,506.9444 Q1512.4116,506.9444 1511.0835,505.3038 Q1509.771,503.6475 1509.771,500.5225 Q1509.771,497.3975 1511.0835,495.7413 Q1512.4116,494.085 1514.9116,494.085 Q1515.6148,494.085 1516.2554,494.2413 Q1516.9116,494.3975 1517.4741,494.6944 L1517.4741,497.4131 Q1516.8491,496.835 1516.2554,496.5694 Q1515.6616,496.2881 1515.0366,496.2881 Q1513.6929,496.2881 1513.0054,497.3663 Q1512.3179,498.4288 1512.3179,500.5225 Q1512.3179,502.6163 1513.0054,503.6944 Q1513.6929,504.7569 1515.0366,504.7569 Q1515.6616,504.7569 1516.2554,504.4913 Q1516.8491,504.21 1517.4741,503.6319 L1517.4741,506.3506 Z " fill="#000000"/><text fill="#000000" font-family="sans-serif" font-size="14" lengthAdjust="spacing" textLength="124.4893" x="1535.0054" y="505.5567">ResultJsonService</text><line style="stroke:#4A4A4A;stroke-width:0.5;" x1="1302.73" x2="1859.27" y1="516.71" y2="516.71"/><line style="stroke:#4A4A4A;stroke-width:0.5;" x1="1302.73" x2="1859.27" y1="524.71" y2="524.71"/><text fill="#000000" font-family="sans-serif" font-size="14" lengthAdjust="spacing" textLength="546.54" x="1307.73" y="541.7051">+saveResult(path: Path, formTitle: String, values: Map&lt;String, Object&gt;): void</text><text fill="#000000" font-family="sans-serif" font-size="14" lengthAdjust="spacing" textLength="327.291" x="1307.73" y="558.002">+loadResult(path: Path): Map&lt;String, Object&gt;</text></g><!--class DynamicFormFrame--><g class="entity" data-qualified-name="ui.DynamicFormFrame" data-source-line="58" id="ent0014"><rect fill="#F9F9F6" height="194.6719" rx="2.5" ry="2.5" style="stroke:#4A4A4A;stroke-width:0.5;" width="328.1484" x="156.93" y="172.3"/><ellipse cx="245.5579" cy="188.3" fill="#ADD1B2" rx="11" ry="11" style="stroke:#181818;stroke-width:1;"/><path d="M248.5267,193.9406 Q247.9486,194.2375 247.3079,194.3781 Q246.6673,194.5344 245.9642,194.5344 Q243.4642,194.5344 242.1361,192.8938 Q240.8236,191.2375 240.8236,188.1125 Q240.8236,184.9875 242.1361,183.3313 Q243.4642,181.675 245.9642,181.675 Q246.6673,181.675 247.3079,181.8313 Q247.9642,181.9875 248.5267,182.2844 L248.5267,185.0031 Q247.9017,184.425 247.3079,184.1594 Q246.7142,183.8781 246.0892,183.8781 Q244.7454,183.8781 244.0579,184.9563 Q243.3704,186.0188 243.3704,188.1125 Q243.3704,190.2063 244.0579,191.2844 Q244.7454,192.3469 246.0892,192.3469 Q246.7142,192.3469 247.3079,192.0813 Q247.9017,191.8 248.5267,191.2219 L248.5267,193.9406 Z " fill="#000000"/><text fill="#000000" font-family="sans-serif" font-size="14" lengthAdjust="spacing" textLength="142.3926" x="266.0579" y="193.1467">DynamicFormFrame</text><line style="stroke:#4A4A4A;stroke-width:0.5;" x1="157.93" x2="484.0784" y1="204.3" y2="204.3"/><text fill="#000000" font-family="sans-serif" font-size="14" lengthAdjust="spacing" textLength="121.2559" x="162.93" y="221.2951">-titleLabel: JLabel</text><text fill="#000000" font-family="sans-serif" font-size="14" lengthAdjust="spacing" textLength="128.0303" x="162.93" y="237.592">-formPanel: JPanel</text><text fill="#000000" font-family="sans-serif" font-size="14" lengthAdjust="spacing" textLength="289.1465" x="162.93" y="253.8889">-bindings: List&lt;FieldComponentBinding&gt;</text><text fill="#000000" font-family="sans-serif" font-size="14" lengthAdjust="spacing" textLength="236.8721" x="162.93" y="270.1857">-currentDefinition: FormDefinition</text><line style="stroke:#4A4A4A;stroke-width:0.5;" x1="157.93" x2="484.0784" y1="277.4875" y2="277.4875"/><text fill="#000000" font-family="sans-serif" font-size="14" lengthAdjust="spacing" textLength="165.0469" x="162.93" y="294.4826">+DynamicFormFrame()</text><text fill="#000000" font-family="sans-serif" font-size="14" lengthAdjust="spacing" textLength="152.4824" x="162.93" y="310.7795">-loadDefinition(): void</text><text fill="#000000" font-family="sans-serif" font-size="14" lengthAdjust="spacing" textLength="316.1484" x="162.93" y="327.0764">-renderForm(definition: FormDefinition): void</text><text fill="#000000" font-family="sans-serif" font-size="14" lengthAdjust="spacing" textLength="131.4277" x="162.93" y="343.3732">-saveResult(): void</text><text fill="#000000" font-family="sans-serif" font-size="14" lengthAdjust="spacing" textLength="128.5771" x="162.93" y="359.6701">-loadResult(): void</text></g><!--class FieldComponentBinding--><g class="entity" data-qualified-name="ui.FieldComponentBinding" data-source-line="70" id="ent0015"><rect fill="#F9F9F6" height="162.0781" rx="2.5" ry="2.5" style="stroke:#4A4A4A;stroke-width:0.5;" width="462.4814" x="22.76" y="443.97"/><ellipse cx="165.9934" cy="459.97" fill="#ADD1B2" rx="11" ry="11" style="stroke:#181818;stroke-width:1;"/><path d="M168.9621,465.6106 Q168.384,465.9075 167.7434,466.0481 Q167.1028,466.2044 166.3996,466.2044 Q163.8996,466.2044 162.5715,464.5638 Q161.259,462.9075 161.259,459.7825 Q161.259,456.6575 162.5715,455.0013 Q163.8996,453.345 166.3996,453.345 Q167.1028,453.345 167.7434,453.5013 Q168.3996,453.6575 168.9621,453.9544 L168.9621,456.6731 Q168.3371,456.095 167.7434,455.8294 Q167.1496,455.5481 166.5246,455.5481 Q165.1809,455.5481 164.4934,456.6263 Q163.8059,457.6888 163.8059,459.7825 Q163.8059,461.8763 164.4934,462.9544 Q165.1809,464.0169 166.5246,464.0169 Q167.1496,464.0169 167.7434,463.7513 Q168.3371,463.47 168.9621,462.8919 L168.9621,465.6106 Z " fill="#000000"/><text fill="#000000" font-family="sans-serif" font-size="14" lengthAdjust="spacing" textLength="167.5146" x="186.4934" y="464.8167">FieldComponentBinding</text><line style="stroke:#4A4A4A;stroke-width:0.5;" x1="23.76" x2="484.2414" y1="475.97" y2="475.97"/><text fill="#000000" font-family="sans-serif" font-size="14" lengthAdjust="spacing" textLength="113.7705" x="28.76" y="492.9651">-field: FormField</text><text fill="#000000" font-family="sans-serif" font-size="14" lengthAdjust="spacing" textLength="178.8281" x="28.76" y="509.262">-component: JComponent</text><line style="stroke:#4A4A4A;stroke-width:0.5;" x1="23.76" x2="484.2414" y1="516.5638" y2="516.5638"/><text fill="#000000" font-family="sans-serif" font-size="14" lengthAdjust="spacing" textLength="157.4863" x="28.76" y="533.5589">+getField(): FormField</text><text fill="#000000" font-family="sans-serif" font-size="14" lengthAdjust="spacing" textLength="221.498" x="28.76" y="549.8557">+getComponent(): JComponent</text><text fill="#000000" font-family="sans-serif" font-size="14" lengthAdjust="spacing" textLength="169.6953" x="28.76" y="566.1526">+getRawValue(): Object</text><text fill="#000000" font-family="sans-serif" font-size="14" lengthAdjust="spacing" textLength="212.7959" x="28.76" y="582.4495">+getConvertedValue(): Object</text><text fill="#000000" font-family="sans-serif" font-size="14" lengthAdjust="spacing" textLength="450.4814" x="28.76" y="598.7464">+applyLoadedValue(valuesByLabel: Map&lt;String, Object&gt;): void</text></g><!--class Main--><g class="entity" data-qualified-name="Main" data-source-line="81" id="ent0016"><rect fill="#F9F9F6" height="64.2969" rx="2.5" ry="2.5" style="stroke:#4A4A4A;stroke-width:0.5;" width="200.8154" x="220.59" y="7"/><ellipse cx="300.0373" cy="23" fill="#ADD1B2" rx="11" ry="11" style="stroke:#181818;stroke-width:1;"/><path d="M303.006,28.6406 Q302.4279,28.9375 301.7873,29.0781 Q301.1466,29.2344 300.4435,29.2344 Q297.9435,29.2344 296.6154,27.5938 Q295.3029,25.9375 295.3029,22.8125 Q295.3029,19.6875 296.6154,18.0313 Q297.9435,16.375 300.4435,16.375 Q301.1466,16.375 301.7873,16.5313 Q302.4435,16.6875 303.006,16.9844 L303.006,19.7031 Q302.381,19.125 301.7873,18.8594 Q301.1935,18.5781 300.5685,18.5781 Q299.2248,18.5781 298.5373,19.6563 Q297.8498,20.7188 297.8498,22.8125 Q297.8498,24.9063 298.5373,25.9844 Q299.2248,27.0469 300.5685,27.0469 Q301.1935,27.0469 301.7873,26.7813 Q302.381,26.5 303.006,25.9219 L303.006,28.6406 Z " fill="#000000"/><text fill="#000000" font-family="sans-serif" font-size="14" lengthAdjust="spacing" textLength="33.4209" x="320.5373" y="27.8467">Main</text><line style="stroke:#4A4A4A;stroke-width:0.5;" x1="221.59" x2="420.4054" y1="39" y2="39"/><line style="stroke:#4A4A4A;stroke-width:0.5;" x1="221.59" x2="420.4054" y1="47" y2="47"/><text fill="#000000" font-family="sans-serif" font-size="14" lengthAdjust="spacing" textLength="188.8154" x="226.59" y="63.9951">+main(args: String[]): void</text></g><g class="entity" data-qualified-name="GMN30" data-source-line="100" id="ent0031"><path d="M1330.29,761.81 L1330.29,777.94 L1295.99,781.94 L1330.29,785.94 L1330.29,802.0756 A0,0 0 0 0 1330.29,802.0756 L1487.7075,802.0756 A0,0 0 0 0 1487.7075,802.0756 L1487.7075,771.81 L1477.7075,761.81 L1330.29,761.81 A0,0 0 0 0 1330.29,761.81" fill="#FEFFDD" style="stroke:#181818;stroke-width:0.5;"/><path d="M1477.7075,761.81 L1477.7075,771.81 L1487.7075,771.81 L1477.7075,761.81" fill="#FEFFDD" style="stroke:#181818;stroke-width:0.5;"/><text fill="#000000" font-family="sans-serif" font-size="13" lengthAdjust="spacing" textLength="136.4175" x="1336.29" y="778.8769">JSON form definition:</text><text fill="#000000" font-family="sans-serif" font-size="13" lengthAdjust="spacing" textLength="101.8862" x="1336.29" y="794.0097">formTitle, fields</text></g><g class="entity" data-qualified-name="GMN33" data-source-line="105" id="ent0034"><path d="M2315.71,504.88 L2315.71,545.1456 L2534.2935,545.1456 L2534.2935,514.88 L2524.2935,504.88 L2315.71,504.88" fill="#FEFFDD" style="stroke:#181818;stroke-width:0.5;"/><path d="M2524.2935,504.88 L2524.2935,514.88 L2534.2935,514.88 L2524.2935,504.88" fill="#FEFFDD" style="stroke:#181818;stroke-width:1;"/><text fill="#000000" font-family="sans-serif" font-size="13" lengthAdjust="spacing" textLength="81.3071" x="2321.71" y="521.9469">Result JSON:</text><text fill="#000000" font-family="sans-serif" font-size="13" lengthAdjust="spacing" textLength="197.5835" x="2321.71" y="537.0797">formTitle, submittedAt, values</text></g><!--reverse link FieldValidator to DefaultFieldValidator--><g class="link" data-entity-1="ent0008" data-entity-2="ent0009" data-link-type="extension" data-source-line="85" id="lnk17"><path codeLine="85" d="M717,575.53 C717,624.55 717,700.52 717,749.5" fill="none" id="FieldValidator-backto-DefaultFieldValidator" style="stroke:#2F4F4F;stroke-width:1;stroke-dasharray:7,7;"/><polygon fill="none" points="717,557.53,711,575.53,723,575.53,717,557.53" style="stroke:#2F4F4F;stroke-width:1;"/></g><!--link FieldComponentFactory to FieldComponentBinding--><g class="link" data-entity-1="ent0006" data-entity-2="ent0015" data-link-type="dependency" data-source-line="86" id="lnk18"><path codeLine="86" d="M2044.65,492.54 C2001.05,467.98 1936.89,436.26 1876,422.71 C1756.8,396.2 899.1,414.92 777,416.44 C664.97,417.83 634.96,401.23 525,422.71 C498.96,427.8 477.8602,433.2877 451.7002,441.7277" fill="none" id="FieldComponentFactory-to-FieldComponentBinding" style="stroke:#2F4F4F;stroke-width:1;stroke-dasharray:7,7;"/><polygon fill="#2F4F4F" points="445.99,443.57,455.7834,444.6134,450.7485,442.0348,453.3271,436.9998,445.99,443.57" style="stroke:#2F4F4F;stroke-width:1;"/><text fill="#000000" font-family="sans-serif" font-size="13" lengthAdjust="spacing" textLength="48.3247" x="778" y="410.0369">creates</text></g><!--link FieldComponentBinding to FormField--><g class="link" data-entity-1="ent0015" data-entity-2="ent0004" data-link-type="dependency" data-source-line="87" id="lnk19"><path codeLine="87" d="M298.41,606.23 C344.83,682.33 424.85,793.85 525,854.83 C706.92,965.61 957.7843,989.8236 1088.8843,994.7736" fill="none" id="FieldComponentBinding-to-FormField" style="stroke:#2F4F4F;stroke-width:1;"/><polygon fill="#2F4F4F" points="1094.88,995,1086.0373,990.6633,1089.8836,994.8113,1085.7355,998.6576,1094.88,995" style="stroke:#2F4F4F;stroke-width:1;"/></g><!--link FieldComponentFactory to FormField--><g class="link" data-entity-1="ent0006" data-entity-2="ent0004" data-link-type="dependency" data-source-line="88" id="lnk20"><path codeLine="88" d="M2068.02,557.28 C2003.97,622.29 1846.54,772.79 1686,854.83 C1546.68,926.03 1372.7913,964.0619 1269.0113,982.1119" fill="none" id="FieldComponentFactory-to-FormField" style="stroke:#2F4F4F;stroke-width:1;stroke-dasharray:7,7;"/><polygon fill="#2F4F4F" points="1263.1,983.14,1272.6523,985.5387,1268.026,982.2832,1271.2815,977.657,1263.1,983.14" style="stroke:#2F4F4F;stroke-width:1;"/></g><!--reverse link FormDefinition to FormField--><g class="link" data-entity-1="ent0003" data-entity-2="ent0004" data-link-type="aggregation" data-source-line="89" id="lnk21"><path codeLine="89" d="M1159.0589,867.1883 C1162.0689,886.5983 1163.5,895.84 1166.57,915.65" fill="none" id="FormDefinition-backto-FormField" style="stroke:#2F4F4F;stroke-width:1;"/><polygon fill="none" points="1157.22,855.33,1154.1867,861.8721,1159.0589,867.1883,1162.0922,860.6462,1157.22,855.33" style="stroke:#2F4F4F;stroke-width:1;"/><text fill="#000000" font-family="sans-serif" font-size="13" lengthAdjust="spacing" textLength="8.271" x="1149.8982" y="874.86">1</text><text fill="#000000" font-family="sans-serif" font-size="13" lengthAdjust="spacing" textLength="23.0356" x="1141.4405" y="904.8213">0..*</text></g><!--link DynamicFormFrame to FormJsonService--><g class="link" data-entity-1="ent0014" data-entity-2="ent0011" data-link-type="dependency" data-source-line="90" id="lnk22"><path codeLine="90" d="M485.33,299.4 C605.7,323.72 771.38,364.07 909,422.71 C958.04,443.61 1006.5269,468.436 1045.7969,489.576" fill="none" id="DynamicFormFrame-to-FormJsonService" style="stroke:#2F4F4F;stroke-width:1;"/><polygon fill="#2F4F4F" points="1051.08,492.42,1045.0513,484.6319,1046.6774,490.05,1041.2593,491.676,1051.08,492.42" style="stroke:#2F4F4F;stroke-width:1;"/></g><!--link DynamicFormFrame to ResultJsonService--><g class="link" data-entity-1="ent0014" data-entity-2="ent0012" data-link-type="dependency" data-source-line="91" id="lnk23"><path codeLine="91" d="M485.43,287.87 C678.53,310.11 1007.56,354.29 1284,422.71 C1349.97,439.05 1416.5371,461.4436 1473.2371,482.2436" fill="none" id="DynamicFormFrame-to-ResultJsonService" style="stroke:#2F4F4F;stroke-width:1;"/><polygon fill="#2F4F4F" points="1478.87,484.31,1471.7982,477.4551,1474.1759,482.588,1469.043,484.9657,1478.87,484.31" style="stroke:#2F4F4F;stroke-width:1;"/></g><!--link DynamicFormFrame to FieldValidator--><g class="link" data-entity-1="ent0014" data-entity-2="ent0008" data-link-type="dependency" data-source-line="92" id="lnk24"><path codeLine="92" d="M472.12,367.33 C541.37,411.64 613.6859,457.9064 662.5759,489.1864" fill="none" id="DynamicFormFrame-to-FieldValidator" style="stroke:#2F4F4F;stroke-width:1;"/><polygon fill="#2F4F4F" points="667.63,492.42,662.2046,484.2002,663.4183,489.7253,657.8931,490.939,667.63,492.42" style="stroke:#2F4F4F;stroke-width:1;"/></g><!--link DynamicFormFrame to FieldComponentFactory--><g class="link" data-entity-1="ent0014" data-entity-2="ent0006" data-link-type="dependency" data-source-line="93" id="lnk25"><path codeLine="93" d="M485.33,279.83 C829.78,300.23 1616.92,353.02 1876,422.71 C1935.32,438.67 1993.3654,466.2273 2037.1454,489.5673" fill="none" id="DynamicFormFrame-to-FieldComponentFactory" style="stroke:#2F4F4F;stroke-width:1;"/><polygon fill="#2F4F4F" points="2042.44,492.39,2036.3799,484.6263,2038.0278,490.0378,2032.6164,491.6857,2042.44,492.39" style="stroke:#2F4F4F;stroke-width:1;"/></g><!--reverse link DynamicFormFrame to FieldComponentBinding--><g class="link" data-entity-1="ent0014" data-entity-2="ent0015" data-link-type="aggregation" data-source-line="94" id="lnk26"><path codeLine="94" d="M292.4134,378.7516 C285.7234,404.0616 281.64,419.48 275.2,443.84" fill="none" id="DynamicFormFrame-backto-FieldComponentBinding" style="stroke:#2F4F4F;stroke-width:1;"/><polygon fill="none" points="295.48,367.15,290.0795,371.9286,292.4134,378.7516,297.8139,373.973,295.48,367.15" style="stroke:#2F4F4F;stroke-width:1;"/><text fill="#000000" font-family="sans-serif" font-size="13" lengthAdjust="spacing" textLength="23.0356" x="253.0654" y="433.0157">0..*</text></g><!--link FormJsonService to FormDefinition--><g class="link" data-entity-1="ent0011" data-entity-2="ent0003" data-link-type="dependency" data-source-line="95" id="lnk27"><path codeLine="95" d="M1112.7,557.53 C1118.29,595.03 1126.9153,652.8956 1134.3453,702.7356" fill="none" id="FormJsonService-to-FormDefinition" style="stroke:#2F4F4F;stroke-width:1;stroke-dasharray:7,7;"/><polygon fill="#2F4F4F" points="1135.23,708.67,1137.8593,699.1786,1134.4928,703.7247,1129.9467,700.3582,1135.23,708.67" style="stroke:#2F4F4F;stroke-width:1;"/></g><!--link ResultJsonService to FormField--><g class="link" data-entity-1="ent0012" data-entity-2="ent0004" data-link-type="dependency" data-source-line="96" id="lnk28"><path codeLine="96" d="M1582.69,565.65 C1583.43,632.91 1575.43,770.33 1505,854.83 C1443.9,928.14 1343.3968,963.013 1268.8268,980.193" fill="none" id="ResultJsonService-to-FormField" style="stroke:#2F4F4F;stroke-width:1;stroke-dasharray:7,7;"/><polygon fill="#2F4F4F" points="1262.98,981.54,1272.6483,983.4173,1267.8524,980.4175,1270.8522,975.6216,1262.98,981.54" style="stroke:#2F4F4F;stroke-width:1;"/><text fill="#000000" font-family="sans-serif" font-size="13" lengthAdjust="spacing" textLength="97.9316" x="1580" y="786.5069">values by label</text></g><!--link Main to DynamicFormFrame--><g class="link" data-entity-1="ent0016" data-entity-2="ent0014" data-link-type="dependency" data-source-line="97" id="lnk29"><path codeLine="97" d="M321,71.44 C321,97.41 321,129.8 321,165.81" fill="none" id="Main-to-DynamicFormFrame" style="stroke:#2F4F4F;stroke-width:1;stroke-dasharray:7,7;"/><polygon fill="#2F4F4F" points="321,171.81,325,162.81,321,166.81,317,162.81,321,171.81" style="stroke:#2F4F4F;stroke-width:1;"/></g><!--link ResultJsonService to GMN33--><g class="link" data-entity-1="ent0012" data-entity-2="ent0034" data-link-type="association" data-source-line="105" id="lnk35"><path d="M1661.14,484.3 C1727.81,452.84 1826.21,411.88 1917.5,394.84 C1996.36,380.12 2203.51,366.34 2278.5,394.84 C2336.54,416.9 2386.28,473.66 2410.06,504.44" fill="none" id="ResultJsonService-GMN33" style="stroke:#2F4F4F;stroke-width:1;stroke-dasharray:7,7;"/></g><?plantuml-src jLPDRzim3BtxLmZP9LcQh1kA0GkA06cB02lwXQRePTX1iPLKgonvafmYtVhVHrcs8qloTbeCrAZvI8gFvBFLC-K5bZX7ASDABRIMT5rgyZKLV4LV2JfEL0jHJpWJBvHlqGOpHHnBWTDdl2KhlMS4IP9gpBVC1Ioa52_dWWc9tdrQdi3b6CzDwZCXCo9hoCd2N044icobA7bMmvPVuFhim9Q2wnkS4yX7CKkI-bnea8kCi07wbI3uLQK2LkONP4CvrLJmscH-4xG1qmFLZCpG2WZXMzT62SlK35rHfKzDZALvC6yHOxGbUja468w246EaN42G2pnsWcPUm2ghYTQVLxMmdZEwaTyIZueAqc61Pf7o6LuJ5daEywAbO0_x8aPQXZNkCKdoiwIIGAwr48nWxjX4OLhJ569TFQOraUg3ilVXg2xjpUdy1gTQoBtNUrFikSWBmGdNImjnYX-ZL1AiYMLoTY08AEpwdb6UDGLr4-ymer0t5D3afXnE2USXDiQZ1S0Wkubhjp3raJ6LGE7j-WTiM7UmEks4gSObq_yXYLkV8d97Kn8krQK2xR36Jb8cS7POk661zTCCtS7VqSnRnh2aUwAWehx82k-8HJXHZy8rhgk3WRh6nMdpp9Ow3_VE73W8EuewH_WfQPUQYpt7EKqhggNHA7VNj3dcbTsjo-hkoT4TvfMjkZksjPs_TjbZmpbtzxIK4Ym7hgFSs_hz4zVxLGj1jvi-UsQnEGYwSHvclTb2DwUNeT7fIB-OnIZeohitz1qPg_s0wZP6H8g7evX_PM_T3AOlo3r-UJIZQ31sXFmWV4Ua9ba_2XS5sry18Gt8plRPlXwZVunuDQoMiMjCc_VV6ENmpn1BCr7M-zltnWqSF4qv_JsTnkKcYKliT3hlQT2ibboLnEsJoTnX_2_H3vZk2txmSO34P886nzFf-u632nQpIUN8JHmKg59Fh2up_HY_e13g5X1z3_a2t53YB7YefHtUe1Dsaj1wRr_tIJKW1kIV9qcuqF35HxTF6ebDJ4ekLxStbO8XHmKgIolFH_L7LGAAWKn0Fsp8i_6tJwi4GK1LhdCA7mNPGZUYtqR_0m00?></g></svg>